<svg xmlns="http://www.w3.org/2000/svg" width="20.426" height="20.426" viewBox="0 0 20.426 20.426">
  <path id="iconfinder_icon-call_2867873" d="M13.275,14.96l1.093-2.186a1.021,1.021,0,0,1,1.226-.511l6.128,2.043a1.021,1.021,0,0,1,.7.97v5.107a2.043,2.043,0,0,1-2.043,2.043H18.341A16.341,16.341,0,0,1,2,6.085V4.043A2.049,2.049,0,0,1,4.043,2H9.149a1.021,1.021,0,0,1,.97.694l2.043,6.128a1.021,1.021,0,0,1-.511,1.236l-2.2,1.093a10.264,10.264,0,0,0,3.81,3.81ZM8.414,4.043H4.043V6.085a14.3,14.3,0,0,0,14.3,14.3h2.043V16.012l-4.6-1.532-1.144,2.308a1.021,1.021,0,0,1-1.328.47A12.3,12.3,0,0,1,7.168,11.12a1.021,1.021,0,0,1,.47-1.328L9.946,8.628Z" transform="translate(-2 -2)" fill="#474958"/>
</svg>
