<svg xmlns="http://www.w3.org/2000/svg" width="21.876" height="23.712" viewBox="0 0 21.876 23.712">
  <g id="Page-1" transform="translate(-3.5 -2.334)">
    <g id="icon-7-mail-envelope-open" transform="translate(4 3)">
      <path id="mail-envelope-open" d="M14.438,3,4,12.185v11.7a1.665,1.665,0,0,0,1.673,1.665H23.2a1.67,1.67,0,0,0,1.673-1.665v-11.7L14.438,3ZM11.933,19.7l-5.845,5.01h16.7L16.943,19.7ZM14.438,4.086l9.185,8.1-7.515,6.68h-3.34l-7.515-6.68,9.185-8.1Zm9.34,20.4-6.417-5.6,6.68-5.86V23.876a.833.833,0,0,1-.263.606Zm-18.68,0,6.417-5.6-6.68-5.86V23.876a.833.833,0,0,0,.263.606Z" transform="translate(-4 -3)" stroke="#474958" stroke-width="1" fill-rule="evenodd"/>
    </g>
  </g>
</svg>
